# xmcd CD database file
#
# Track frame offsets:
#	150
#	15511
#	26231
#	41344
#	55676
#	67547
#	85424
#	101177
#	112324
#	123956
#	138145
#	150122
#	168925
#
# Disc length: 2450 seconds
#
# Revision: 2
# Processed by: cddbd v1.5.2PL0 Copyright (c) Steve Scherf et al.
# Submitted via: cdripper 1,0,33,916
#
DISCID=9809900d
DTITLE=Heidi Hauge - Country Blue
DYEAR=2002
DGENRE=Country
TTITLE0=Turn It On, Turn It Up, Turn Me Loose
TTITLE1=Once A Day
TTITLE2=Lay Down Beside Me
TTITLE3=Coat Of Many Colors
TTITLE4=Does My Ring Hurt Your Finger
TTITLE5=Free To Go
TTITLE6=We Belive In Happy Endings
TTITLE7=Hello Little Bluebird
TTITLE8=Love Is The Foundation
TTITLE9=Mama Say A Prayer
TTITLE10=Walk That Line
TTITLE11=The Last Dance
TTITLE12=Blue Eyes Crying In The Rain
EXTD=YEAR: 2002
EXTT0=
EXTT1=
EXTT2=
EXTT3=
EXTT4=
EXTT5=
EXTT6=
EXTT7=
EXTT8=
EXTT9=
EXTT10=
EXTT11=
EXTT12=
PLAYORDER=
